<?xml version="1.0" encoding="utf-8"?>
<!-- Generator: Adobe Illustrator 16.0.0, SVG Export Plug-In . SVG Version: 6.00 Build 0)  -->
<!DOCTYPE svg PUBLIC "-//W3C//DTD SVG 1.1//EN" "http://www.w3.org/Graphics/SVG/1.1/DTD/svg11.dtd">
<svg version="1.1" id="Ebene_1" xmlns="http://www.w3.org/2000/svg" xmlns:xlink="http://www.w3.org/1999/xlink" x="0px" y="0px"
	 width="500px" height="500px" viewBox="0 0 500 500" enable-background="new 0 0 500 500" xml:space="preserve">
<path d="M484.535,247.144c-3.551-3.771-6.065-8.658-10.559-11.486c-3.709,3.08-7.008,6.395-10.527,9.585
	c-3.269,2.954-6.506,7.857-12.979,7.211c9.302-14.062,19.86-26.915,28.818-41.292c-4.558-3.771-8.203-8.406-13.389-11.518
	c-11.722,12.869-24.48,27.356-37.019,40.806c-3.079,3.284-9.302,11.643-12.947,12.932c-8.076,2.953-16.436-0.031-25.422,1.964
	c5.09-7.825,10.307-15.603,15.334-23.553c-3.928-5.594-7.793-11.454-11.03-17.74c-9.678,9.663-19.515,21.542-29.287,32.636
	c-2.609,2.985-6.978,9.646-10.12,10.589c-4.274,1.321-10.684,0.614-15.807,0.96c-5.091,0.267-10.371,0.203-15.808,0.942
	c5.752-11.235,11.377-22.532,17.315-33.563c15.744-6.662,32.086-12.743,47.955-19.216c0.347-7.699,2.545-16.027,2.39-22.595
	c-8.958-0.99-18.039-1.792-25.926-3.834c5.216-10.292,10.087-20.944,15.366-31.205c22.721-8.783,44.97-18.022,67.658-26.869
	c-0.472-7.401-1.163-14.519-2.419-21.086c-15.462,0.582-31.079,1.1-45.566,1.383c2.921-4.525,4.965-10.025,8.139-14.377
	c7.855-1.571,15.084-3.803,23.065-5.248c0.471-6.945,0.818-13.906,0.975-21.134c-6.851-3.583-13.261-7.574-20.145-11.015
	c-2.953-7.212-7.195-13.026-10.118-20.144c-6.694,1.807-12.288,4.604-19.169,6.207c-0.282,16.483,7.762,37.632-1.886,48.018
	c-6.6-20.977-14.299-40.774-20.71-61.908c-6.944,3.252-13.826,6.599-19.609,11.03c5.061,33.593,10.778,66.621,16.279,99.822
	c-4.997,11.141-9.208,23.145-14.394,34.081c-6.819-8.406-12.633-17.755-20.206-25.454c-2.64,4.478-13.388,8.202-14.394,13.418
	c-0.597,3.473,2.388,9.711,3.363,14.393c3.236,15.084,6.6,31.818,9.647,44.168c-5.939,10.434-10.998,21.636-16.813,32.18
	c-2.671-4.729-4.871-9.286-7.668-14.44c-2.137-3.897-7.417-10.245-7.668-14.833c-0.188-3.897,3.048-10.591,4.307-15.383
	c4.178-15.603,8.546-31.896,12.412-46.541c-4.778-4.761-10.968-8.202-16.279-12.507c-7.133,9.648-13.733,19.846-21.588,28.801
	c-2.609-7.211-5.972-13.623-9.113-21.117c-2.169-5.186-8.422-16.279-8.611-21.558c-0.157-3.347,2.482-8.407,3.833-12.963
	c9.146-31.189,18.698-64.233,26.901-93.616c-8.957-3.252-17.63-6.694-26.901-9.584c-10.778,20.756-19.955,43.116-30.733,63.809
	c-3.174-7.793-6.348-15.681-9.585-23.491c3.896-11.14,8.076-21.919,11.03-34.08c-8.484-4.51-17.283-8.596-25.423-13.451
	c-4.022,2.954-7.479,6.568-11.533,10.559c-3.363,3.409-6.819,9.192-11.03,11.093c-8.422,3.739-18.73,1.995-29.289,5.248v26.382
	c5.783,2.356,11.754,4.871,17.755,7.699c4.683,2.215,14.173,5.044,17.787,8.14c3.048,2.671,4.965,8.076,7.196,11.517
	c2.546,3.991,5.279,7.149,6.694,11.046c-28.565-3.991-57.289-7.951-85.854-12.004c0.188,10.135,0.125,17.959,0.911,27.827
	c37.805,11.297,75.547,22.752,113.226,34.081c5.908,14.157,13.45,26.617,19.264,40.805c-11.596,1.902-23.789,3.096-35.542,4.792
	c-0.314,8.344-1.603,15.634-1.886,23.978c19.515,4.509,38.685,9.271,58.482,13.45c5.5,10.354,13.168,21.103,17.315,31.19
	c-11.533-0.142-21.871,0.864-33.593,0.503c-15.43-14.833-29.289-31.237-44.624-46.07c-5.091,5.625-12.036,9.396-16.844,15.336
	c4.148,11.438,8.956,22.139,12.507,34.081c-15.116-0.896-31.897-0.063-47.012-0.958c-23.035-21.685-50.752-46.824-74.887-69.608
	c-2.105-1.964-8.956-10.103-10.559-10.04c-0.597,0.032-4.996,4.918-5.719,5.735c-6.505,7.133-11.125,12.067-16.373,18.243
	c17.347,19.97,36.139,41.026,51.82,60.982c-9.773-0.739-19.924-1.195-30.168-1.446c-10.873-8.107-20.521-17.284-31.237-25.455
	c-3.3,3.504-6.033,6.552-10.087,10.606c-2.545,2.544-9.679,7.086-10.056,10.983c-0.094,1.256,1.634,4.666,2.389,6.756
	c2.671,7.243,5.216,13.592,7.667,20.128c-1.728,8.578-2.545,17.912-3.802,26.901c5.594,5.529,12.947,9.427,18.698,14.831
	c5.091-3.33,9.176-8.578,14.393-13.45c3.394-3.143,10.841-11.564,14.896-12.916c6.505-2.168,13.984-0.345,22.532-1.979
	c-14.11,19.169-29.006,37.585-42.676,57.194c7.196,5.846,15.618,10.559,22.972,16.246c19.578-17.787,38.653-39.093,58.075-58.546
	c4.148-4.147,15.146-17.409,20.143-19.169c3.3-1.131,7.699-0.628,11.564-0.942c12.099-1.006,22.501-2.011,34.537-2.892
	c-5.217,10.937-10.685,21.559-16.31,32.18c6.442,4.085,13.135,7.92,19.704,12.004c10.716-11.69,23.317-25.768,35.008-38.464
	c3.237-3.426,9.113-11.376,12.444-12.445c5.06-1.602,12.129-0.596,18.258-1.005c6.065-0.313,12.036-0.691,16.813-0.44
	c-5.908,11.565-11.375,23.507-17.787,34.537c-19.264,9.364-37.772,19.515-56.597,29.287c-0.063,5.563,0.849,10.025,0.942,15.432
	c10.937-0.346,24.135-0.88,34.065-0.535c-4.525,8.517-8.579,16.751-12.916,24.921c-4.306,8.044-7.354,9.679-15.398,13.922
	c-25.455,13.575-52.386,27.999-75.798,41.764c1.634,6.223,2.985,12.696,4.777,18.697c21.307-6.85,41.67-14.58,62.882-21.588
	c-1.508,3.802-3.237,7.353-5.248,10.59c-11.093,5.563-22.375,10.968-33.154,16.813c1.822,5.656,3.708,11.281,6.253,16.279
	c10.59,1.444,20.803-0.881,29.729,1.444c4.431,1.132,7.856,4.463,11.501,5.279c1.351,0.346,2.577-0.879,3.331,0.472
	c5.468-3.991,11.188-7.73,16.373-11.974c-4.179-6.41-8.453-12.633-11.973-19.672c2.451-4.588,4.431-9.585,7.165-13.921
	c8.045,10.15,15.399,21.087,23.57,31.174c5.217-4.809,11.47-8.642,16.718-13.45c-6.945-19.264-13.639-38.842-20.081-58.545
	c5.248-12.13,9.773-25.015,15.775-36.517c6.285,5.468,12.351,11.063,18.698,16.341c4.4-4.839,10.371-8.17,14.456-13.449
	c-4.746-14.896-9.428-29.886-13.952-45.064c5.687-10.999,9.772-23.507,15.9-34.065c3.613,8.831,8.392,16.467,12.413,24.983
	c-4.871,18.572-9.522,37.49-13.859,56.565h16.278c6.161-6.128,12.193-14.959,18.259-19.641c1.382,7.448,8.045,13.513,8.139,21.118
	c0.063,4.776-3.96,12.633-5.782,18.227c-6.064,18.604-12.287,38.811-17.723,55.151c5.907,0.534,12.004,0.786,17.723,1.508
	c8.015-16.059,15.367-32.713,23.506-48.52c2.797,10.558-4.367,22.532-5.718,33.593c4.965,0.755,10.872,0.629,15.806,1.445
	c5.249-4.305,8.17-11.502,13.922-15.334c5.343-3.615,11.941-4.527,17.725-8.234c0.345-5.406,1.066-12.005,0.974-19.106h-23.004
	c-0.848-1.729-3.111-4.086-2.389-5.751c13.733-1.445,26.586-3.802,39.849-5.814c0.66-6.189,1.665-12.066,2.356-18.227
	c-18.509-1.759-36.925-3.646-56.188-4.775c-3.362-6.412-6.253-13.2-9.05-20.177c7.887-4.211,15.901-8.39,23.976-12.506v-16.279
	c-14.454-1.696-28.878-3.457-43.681-4.775c-4.305-7.668-9.93-16.625-12.946-24.01c9.522-0.409,18.667-1.132,28.313-1.445
	c9.522,10.025,19.169,19.923,28.313,30.23c5.219-3.771,10.184-7.762,14.395-12.507c-1.696-7.039-3.96-13.576-5.752-20.553
	c8.486-0.659,17.253-1.068,25.926-1.539c9.585,15.43,19.169,30.797,28.282,46.604c6.161-4.337,11.943-9.208,16.813-14.896
	c-5.091-11.816-10.999-22.877-15.838-35.07h10.527c3.425,6.159,6.002,12.946,9.647,18.792c1.886-5.405,10.466-7.982,11.502-13.954
	c0.753-4.115-1.948-8.453-1.917-13.889C477.37,260.783,481.361,254.388,484.535,247.144"/>
</svg>
